<svg xmlns="http://www.w3.org/2000/svg" viewBox="0 0 469.28 607.26"><defs><style>.a,.f{fill:#4a4ac6}.a{fill-rule:evenodd}.b{fill:#ff8fb4}.c{fill:#ffa880}.d{fill:#f6ccce}.e{fill:#3deb70}</style></defs><path class="a" d="M360 108.94l-25.6-25C288 125 239.79 133.32 190.06 112.21c7.45 73.52-14.28 130.67-49.7 184l106.85-104.8.61-.65a15.45 15.45 0 115.43 4.67L145.71 302.11c61.62-44.89 123.23-64.09 184.84-53-17.28-49.55-4.77-96 29.45-140.17zM339.78 77.98l25 24.11 9.53-8.63-25.3-25.6-9.23 10.12z"/><circle class="b" cx="53.72" cy="172.02" r="9.23"/><path class="b" d="M17.43 178.59c13.19 36.46 43.63 27.77 86.91-14.59C64 214.13 51.2 269.25 58.5 328q-43.76-55.66-41.07-149.41z"/><circle class="c" cx="194.43" cy="28.87" r="9.23"/><path class="c" d="M177 0c-29.38 25.32-12 48 43 73.31-59.65-18-117.28-9.38-169.58 18.37C81.12 43.46 122.2 12.5 177 0z"/><circle class="d" cx="157.23" cy="365.12" r="9.23"/><path class="d" d="M155 401.93c38.55-4.17 37.33-35.79 6.44-87.89 39.12 51.13 89.65 76.58 148.46 83.42q-64.45 29.31-154.9 4.47z"/><ellipse class="e" cx="354.41" cy="327.41" rx="9.46" ry="9.23" transform="rotate(-56.9 354.405 327.405)"/><path class="e" d="M388.49 341.59c9.36-38.51-21-47.67-81-34.94 61.89-21 103.42-61.35 130.19-115.78q5.54 71.69-49.19 150.72z"/><path class="f" d="M69.7 501.87h42.38v16.09H69.7z"/><path class="a" d="M180.43 521.85v-55.64h-14.69v20.47a29.91 29.91 0 00-15.92-3.76 30.13 30.13 0 1021.82 52.16l9.43 9.43 10.38-10.38L181.31 524a3 3 0 01-.88-2.15zm-29.3 5.79A14.62 14.62 0 11165.74 513a14.62 14.62 0 01-14.61 14.64zM59.74 507.23c0-8.93-10-25-29.61-25C12 482.21 0 496.77 0 518.21c0 18.9 12.38 31.94 33.17 31.94v-15.34c-13.15 0-17.08-7-17.08-12h43.65zm-42.77.6a13.34 13.34 0 0125.81 0zM257.62 507.23c0-8.93-10-25-29.62-25-18.13 0-30.13 14.56-30.13 36 0 18.9 12.39 31.94 33.17 31.94v-15.36c-13.15 0-17.08-7-17.08-12h43.66zm-42.78.6a13.34 13.34 0 0125.81 0z"/><path class="f" d="M313.53 494.92h16.17v45.85h-16.17z"/><circle class="f" cx="321.62" cy="481.8" r="8.85"/><path class="a" d="M413.28 539.91v-72.34l38.97 45.62v-28.08h17.03v73.19l-38.47-45.37v27.15l-17.53-.17zM255.15 535v15.17c21.79 0 32.85-13.47 32.85-25.21v-22.11c0-10.17 8.34-13.15 16.34-13.15v-15c-18 0-32.51 10.22-32.51 30v18.89c0 7.64-8.68 11.41-16.68 11.41zM400.76 511.83a30 30 0 10-15.71 26.4c-3.16 15-17.77 13-17.77 13V567c21.06 0 33.45-13.53 33.45-33.32v-20.74c.01-.37.03-.74.03-1.11zm-30 14.47a14.47 14.47 0 1114.47-14.47 14.46 14.46 0 01-14.51 14.47zM19.85 582.13H36v2.74H22.92v8h12.84v2.74H22.92v8.51H36v2.73H19.85zM63.33 597h-4.92v9.8h-3.08v-24.67h9.92c4.52 0 7.73 2.89 7.73 7.44a6.82 6.82 0 01-6.4 7.18l6.66 10.06h-3.62zm1.55-12.14h-6.47v9.44h6.47a4.72 4.72 0 100-9.44zM107.8 601.34H95.29l-2.18 5.47h-3.4l9.91-24.68h3.81l10 24.68H110zm-11.62-2.74h10.7l-5.33-13.73zM130.85 601a10.41 10.41 0 007.77 3.52c4.4 0 5.81-2.37 5.81-4.26 0-3-3-3.77-6.25-4.66-4-1-8.37-2.14-8.37-7 0-4.07 3.63-6.85 8.48-6.85a11.62 11.62 0 018.77 3.44l-1.85 2.26a9.46 9.46 0 00-7.14-3c-3 0-5.07 1.59-5.07 3.92 0 2.48 2.85 3.22 6 4.07 4 1.08 8.62 2.33 8.62 7.52 0 3.59-2.44 7.25-9.1 7.25a12.22 12.22 0 01-9.47-3.92zM187.72 586.28l-8.4 20.53h-1.26l-8.36-20.53v20.53h-3.07v-24.68H171l7.66 18.8 7.7-18.8h4.4v24.68h-3.07zM211 582.13h3.07v15c0 4.51 2.45 7.36 7 7.36s7-2.85 7-7.36v-15h3.07v15.06c0 6.15-3.37 10.07-10.06 10.07s-10.07-4-10.07-10zM251.65 601a10.43 10.43 0 007.78 3.52c4.4 0 5.8-2.37 5.8-4.26 0-3-3-3.77-6.25-4.66-4-1-8.36-2.14-8.36-7 0-4.07 3.62-6.85 8.47-6.85a11.6 11.6 0 018.77 3.44l-1.86 2.27a9.46 9.46 0 00-7.14-3c-3 0-5.07 1.59-5.07 3.92 0 2.48 2.85 3.22 6 4.07 4 1.08 8.63 2.33 8.63 7.52 0 3.59-2.45 7.25-9.11 7.25a12.24 12.24 0 01-9.47-3.92zM317.56 603.19h-2.11v-7.88h-7.11v-1.93h7.11v-7.66h2.11v7.66h7.1v1.93h-7.1zM371.32 595.71l-2.48 2.82v8.28h-3.07v-24.68h3.07v12.77l10.92-12.77h3.85l-10.29 11.73 11.17 12.95h-3.81zM418 601.34h-12.53l-2.18 5.47h-3.41l9.92-24.68h3.81l10 24.68h-3.41zm-11.62-2.74h10.69l-5.32-13.73zM440.33 604.37c8.88-7 13.69-11.1 13.69-15.35 0-3.15-2.59-4.52-5.15-4.52a8.23 8.23 0 00-6.69 3.11l-1.89-2a10.68 10.68 0 018.58-3.89c4.11 0 8.29 2.33 8.29 7.26s-5.11 9.62-12 15.06h12.1v2.73h-16.93z"/></svg>