<svg xmlns="http://www.w3.org/2000/svg" viewBox="0 0 469.28 607.26"><defs><style>.a,.c{fill:#87888a;}.a,.b{fill-rule:evenodd;}.b{fill:#3e3d40;}</style></defs><path class="a" d="M330.55,249.13c-61.61-11.11-123.22,8.09-184.84,53L253.25,195.38a15.53,15.53,0,1,0-5.43-4.67l-.61.65L140.36,296.16c35.42-53.28,57.15-110.43,49.7-184C239.79,133.32,288,125,334.42,83.94l25.6,25C325.78,153.11,313.27,199.56,330.55,249.13ZM339.78,78l25,24.11,9.53-8.63L349,67.86ZM53.72,162.79A9.23,9.23,0,1,0,63,172,9.23,9.23,0,0,0,53.72,162.79ZM58.5,328C51.2,269.25,64,214.13,104.34,164c-43.28,42.36-73.72,51.05-86.91,14.59Q14.75,272.34,58.5,328ZM203.05,25.58a9.22,9.22,0,1,0-5.34,11.91A9.23,9.23,0,0,0,203.05,25.58ZM50.37,91.68C102.67,63.93,160.3,55.36,220,73.31,165,48,147.59,25.32,177,0,122.2,12.5,81.12,43.46,50.37,91.68Zm97.9,271.25a9.22,9.22,0,1,0,11.15-6.78A9.22,9.22,0,0,0,148.27,362.93ZM309.9,397.46c-58.81-6.84-109.34-32.29-148.46-83.42,30.89,52.1,32.11,83.72-6.44,87.89Q245.45,426.77,309.9,397.46Zm39.35-62.13a9.46,9.46,0,1,0-2.57-13A9.35,9.35,0,0,0,349.25,335.33Zm88.46-144.46c-26.77,54.43-68.3,94.8-130.19,115.78,60-12.73,90.33-3.57,81,34.94Q443.21,262.55,437.71,190.87Z"/><path class="b" d="M112.09,518H69.7V501.87h42.39Zm69.22,6,10.14,10.14-10.38,10.38-9.43-9.43a30.13,30.13,0,1,1-5.9-48.4V466.21h14.69v55.64A3,3,0,0,0,181.31,524Zm-15.57-11a14.62,14.62,0,1,0-14.61,14.62A14.62,14.62,0,0,0,165.74,513Zm-106,9.81H16.09c0,5,3.93,12,17.08,12v15.34c-20.79,0-33.17-13-33.17-31.94,0-21.44,12-36,30.13-36,19.66,0,29.61,16.09,29.61,25Zm-17-15a13.34,13.34,0,0,0-25.81,0Zm214.84,15H214c0,5,3.93,12,17.08,12v15.34c-20.78,0-33.17-13-33.17-31.94,0-21.44,12-36,30.13-36,19.66,0,29.62,16.09,29.62,25Zm-17-15a13.34,13.34,0,0,0-25.81,0Zm89-12.91H313.53v45.85H329.7Zm-8.08-22a8.85,8.85,0,1,0,8.85,8.85A8.85,8.85,0,0,0,321.62,473Zm109.19,67.13V512.94l38.47,45.36V485.11h-17v28.08l-39-45.62v72.34ZM255.15,535v15.17c21.79,0,32.85-13.47,32.85-25.21V502.85c0-10.17,8.34-13.15,16.34-13.15v-15c-18,0-32.51,10.22-32.51,30v18.89C271.83,531.23,263.15,535,255.15,535Zm145.58-22h0v20.72c0,19.79-12.39,33.32-33.45,33.32v-15.7s14.61,2,17.77-13a30,30,0,1,1,15.71-26.4C400.76,512.2,400.74,512.57,400.73,512.94Zm-15.54-1.11a14.47,14.47,0,1,0-14.47,14.47A14.47,14.47,0,0,0,385.19,511.83Z"/><path class="c" d="M19.85,582.13H36v2.74H22.92v8H35.76v2.74H22.92v8.51H36v2.73H19.85ZM63.33,597H58.41v9.8H55.33V582.13h9.92c4.52,0,7.73,2.89,7.73,7.44a6.82,6.82,0,0,1-6.4,7.18l6.66,10.06H69.62Zm1.55-12.14H58.41v9.44h6.47a4.72,4.72,0,1,0,0-9.44Zm42.92,16.47H95.29l-2.18,5.47h-3.4l9.91-24.68h3.81l10,24.68H110ZM96.18,598.6h10.7l-5.33-13.73Zm34.67,2.4a10.41,10.41,0,0,0,7.77,3.52c4.4,0,5.81-2.37,5.81-4.26,0-3-3-3.77-6.25-4.66-4-1-8.37-2.14-8.37-7,0-4.07,3.63-6.85,8.48-6.85a11.62,11.62,0,0,1,8.77,3.44l-1.85,2.26a9.46,9.46,0,0,0-7.14-3c-3,0-5.07,1.59-5.07,3.92,0,2.48,2.85,3.22,6,4.07,4,1.08,8.62,2.33,8.62,7.52,0,3.59-2.44,7.25-9.1,7.25a12.22,12.22,0,0,1-9.47-3.92Zm56.87-14.72-8.4,20.53h-1.26l-8.36-20.53v20.53h-3.07V582.13H171l7.66,18.8,7.7-18.8h4.4v24.68h-3.07ZM211,582.13h3.07v15c0,4.51,2.45,7.36,7,7.36s7-2.85,7-7.36v-15h3.07v15.06c0,6.15-3.37,10.07-10.06,10.07s-10.07-4-10.07-10ZM251.65,601a10.43,10.43,0,0,0,7.78,3.52c4.4,0,5.8-2.37,5.8-4.26,0-3-3-3.77-6.25-4.66-4-1-8.36-2.14-8.36-7,0-4.07,3.62-6.85,8.47-6.85a11.6,11.6,0,0,1,8.77,3.44L266,587.46a9.46,9.46,0,0,0-7.14-3c-3,0-5.07,1.59-5.07,3.92,0,2.48,2.85,3.22,6,4.07,4,1.08,8.63,2.33,8.63,7.52,0,3.59-2.45,7.25-9.11,7.25a12.24,12.24,0,0,1-9.47-3.92Zm65.91,2.19h-2.11v-7.88h-7.11v-1.93h7.11v-7.66h2.11v7.66h7.1v1.93h-7.1Zm53.76-7.48-2.48,2.82v8.28h-3.07V582.13h3.07V594.9l10.92-12.77h3.85l-10.29,11.73,11.17,12.95h-3.81ZM418,601.34H405.47l-2.18,5.47h-3.41l9.92-24.68h3.81l10,24.68h-3.41Zm-11.62-2.74h10.69l-5.32-13.73Zm34,5.77c8.88-7,13.69-11.1,13.69-15.35,0-3.15-2.59-4.52-5.15-4.52a8.23,8.23,0,0,0-6.69,3.11l-1.89-2a10.68,10.68,0,0,1,8.58-3.89c4.11,0,8.29,2.33,8.29,7.26s-5.11,9.62-12,15.06h12.1v2.73H440.33Z"/></svg>